<svg width="360" height="230" viewBox="0 0 360 230" fill="none" xmlns="http://www.w3.org/2000/svg">
<mask id="mask0_3412_281" style="mask-type:alpha" maskUnits="userSpaceOnUse" x="0" y="0" width="360" height="230">
<rect width="360" height="230" rx="30" fill="#16084C"/>
</mask>
<g mask="url(#mask0_3412_281)">
<path d="M1.28345 31C1.28345 13.8792 15.1626 0 32.2834 0H360V230H32.2834C15.1626 230 1.28345 216.121 1.28345 199V31Z" fill="#0D0B2A"/>
<path d="M1.28345 31C1.28345 13.8792 15.1626 0 32.2834 0H360V230H32.2834C15.1626 230 1.28345 216.121 1.28345 199V31Z" fill="url(#paint0_linear_3412_281)" fill-opacity="0.35"/>
<g filter="url(#filter0_f_3412_281)">
<ellipse cx="148.841" cy="135.313" rx="148.841" ry="135.313" transform="matrix(-0.56677 -0.823876 0.818756 -0.574142 165.509 141.478)" fill="#FFC632"/>
</g>
<g filter="url(#filter1_f_3412_281)">
<path d="M176.711 101.032C276.783 170.164 249.247 288.128 286.897 307.456C334.226 331.751 381.502 234.3 365.942 176.511C347.602 108.394 108.893 54.1822 176.711 101.032Z" fill="#F73A67"/>
</g>
<g filter="url(#filter2_f_3412_281)">
<path d="M298.827 180.268C320.041 211.106 346.256 214.213 368.158 198.854C413.861 166.806 242.846 -116.803 176.374 -131.3C127.524 -141.953 90.755 -110.411 98.7181 -68.6563C107.717 -21.4701 103.094 -20.7757 139.996 5.90697C170.786 28.1703 210.381 49.9774 241.548 76.3128C270.72 100.963 279.983 152.876 298.827 180.268Z" fill="#FD294F" fill-opacity="0.8"/>
</g>
</g>
<defs>
<filter id="filter0_f_3412_281" x="-48.5396" y="-305.242" width="480.955" height="492.808" filterUnits="userSpaceOnUse" color-interpolation-filters="sRGB">
<feFlood flood-opacity="0" result="BackgroundImageFix"/>
<feBlend mode="normal" in="SourceGraphic" in2="BackgroundImageFix" result="shape"/>
<feGaussianBlur stdDeviation="50.6104" result="effect1_foregroundBlur_3412_281"/>
</filter>
<filter id="filter1_f_3412_281" x="56.6489" y="-24.5165" width="420.284" height="443.756" filterUnits="userSpaceOnUse" color-interpolation-filters="sRGB">
<feFlood flood-opacity="0" result="BackgroundImageFix"/>
<feBlend mode="normal" in="SourceGraphic" in2="BackgroundImageFix" result="shape"/>
<feGaussianBlur stdDeviation="53.9844" result="effect1_foregroundBlur_3412_281"/>
</filter>
<filter id="filter2_f_3412_281" x="-10.3382" y="-241.355" width="494.123" height="557.179" filterUnits="userSpaceOnUse" color-interpolation-filters="sRGB">
<feFlood flood-opacity="0" result="BackgroundImageFix"/>
<feBlend mode="normal" in="SourceGraphic" in2="BackgroundImageFix" result="shape"/>
<feGaussianBlur stdDeviation="53.9844" result="effect1_foregroundBlur_3412_281"/>
</filter>
<linearGradient id="paint0_linear_3412_281" x1="180.642" y1="0" x2="180.642" y2="230" gradientUnits="userSpaceOnUse">
<stop stop-color="#272727"/>
<stop offset="1" stop-color="#353535" stop-opacity="0"/>
</linearGradient>
</defs>
</svg>
