<svg width="45" height="21" viewBox="0 0 45 21" fill="none" xmlns="http://www.w3.org/2000/svg">
<g clip-path="url(#clip0_3406_234)">
<path d="M12.3553 0.691406H7.69248C5.63211 0.79089 3.94797 1.63835 3.46169 3.38595C3.20813 4.29737 3.06859 5.29834 2.87032 6.24312C1.86234 11.047 0.968563 15.9834 0.00439453 20.6914H36.3065C39.113 20.6914 41.0401 20.0858 41.5607 17.8109C41.8026 16.7542 42.0343 15.5574 42.2658 14.3964C43.1681 9.86974 44.0711 5.34335 44.9954 0.691406H12.3553Z" fill="#822124"/>
<path d="M11.9916 7.79946C12.1866 7.66227 12.4378 7.0375 12.1508 6.77738C12.0599 6.69503 11.9079 6.67113 11.6959 6.70775C11.4992 6.74166 11.3861 6.80994 11.3092 6.91682C11.1858 7.08864 11.0724 7.60698 11.2637 7.79955C11.4501 7.98697 11.8675 7.88668 11.9916 7.79946ZM9.21662 6.77738C9.0769 7.70322 8.91952 8.61103 8.76169 9.51838C7.74842 9.52929 6.71386 9.56943 5.73654 9.49511C5.92112 8.60742 6.05351 7.66633 6.23695 6.77738H5.14516C4.75435 9.04179 4.39878 11.3424 3.9624 13.5602H5.07698C5.25176 12.4226 5.41532 11.2733 5.64557 10.192C6.59587 10.1681 7.73482 10.1265 8.64803 10.2153C8.45973 11.3394 8.23223 12.4232 8.05665 13.5602H9.17123C9.52944 11.2624 9.90665 8.98416 10.3541 6.77738H9.21662ZM24.9794 8.72864C24.1122 8.37093 23.4304 8.97541 23.1143 9.54165C23.186 9.28974 23.2155 8.99471 23.2736 8.72864H22.4092C22.1979 10.4022 21.8865 11.9734 21.5904 13.5602H22.5685C22.7056 12.6183 22.7648 11.3486 23.0689 10.4476C23.3119 9.72754 23.948 9.11413 24.8658 9.44875C24.8785 9.18313 24.953 8.98037 24.9794 8.72864ZM25.5252 12.4221C25.435 12.1842 25.4118 11.7915 25.4343 11.4928C25.4848 10.8217 25.7243 10.0045 26.0939 9.63455C26.604 9.12396 27.6109 9.20847 28.4141 9.4952C28.4389 9.21875 28.4933 8.97216 28.5278 8.70546C27.2106 8.48575 25.9608 8.62248 25.298 9.33267C24.6491 10.0279 24.224 11.6258 24.5245 12.6312C24.8764 13.8076 26.4543 13.8716 27.7317 13.421C27.7882 13.1845 27.8182 12.9209 27.8682 12.6777C27.17 13.0479 25.8354 13.2404 25.5252 12.4221ZM36.5114 8.75182C35.6469 8.31041 34.9272 9.05108 34.6463 9.49511C34.7263 9.26728 34.7309 8.96215 34.8055 8.72855H33.9412C33.7081 10.3876 33.4273 11.9977 33.0997 13.5602H34.1005C34.1068 12.9198 34.23 12.4461 34.3278 11.8181C34.537 10.4771 34.8441 9.00662 36.3751 9.44866C36.4257 9.22191 36.4468 8.96468 36.5114 8.75182ZM10.9908 8.72864C10.9643 8.73252 10.966 8.76535 10.968 8.79827C10.7525 10.4442 10.4608 12.0125 10.1492 13.5602H11.1272C11.3622 11.9031 11.6314 10.2811 11.9688 8.72855L10.9908 8.72864ZM19.5886 8.63574C18.8819 8.69139 18.2845 8.89902 17.86 9.35585C17.3392 9.91604 16.9176 11.1547 17.0412 12.2827C17.2174 13.892 19.1794 13.8342 20.7487 13.4442C20.7754 13.1617 20.8424 12.9202 20.8851 12.6543C20.2387 12.9014 19.1163 13.2462 18.4512 12.817C17.9492 12.4928 17.9463 11.6721 18.1101 10.9587C19.1648 10.9244 20.261 10.9309 21.3172 10.9587C21.3841 10.4531 21.5758 9.90179 21.4081 9.40239C21.187 8.74307 20.3948 8.57224 19.5886 8.63574ZM20.5212 10.4011H18.2237C18.2965 9.86175 18.7717 9.2689 19.5203 9.23968C20.2249 9.21217 20.7294 9.50386 20.5212 10.4011ZM15.8811 8.72864C15.0533 8.41107 14.0444 8.79015 13.607 9.15075C13.6086 9.16662 13.5966 9.16879 13.5837 9.16996C13.5911 9.16355 13.5992 9.15715 13.607 9.15075C13.6069 9.14942 13.6068 9.14809 13.6066 9.14678C13.6139 8.99174 13.6673 8.88368 13.6747 8.72864H12.8332C12.4824 11.1115 12.0666 13.4277 11.6277 15.7205H12.6057C12.7473 14.8276 12.8408 13.8855 13.038 13.0492C13.2613 13.9288 14.7198 13.7607 15.3353 13.4209C16.605 12.7195 17.5845 9.382 15.8811 8.72864ZM15.1078 12.6543C14.5845 13.2203 13.2981 13.2118 13.1971 12.2594C13.1532 11.845 13.3043 11.4106 13.3792 10.9819C13.4547 10.5479 13.5092 10.1316 13.5838 9.75072C14.0992 9.108 15.6138 9.03034 15.7674 10.0991C15.9007 11.0271 15.5411 12.1856 15.1078 12.6543ZM40.1506 6.63803C40.0668 7.38862 39.9548 8.11045 39.8096 8.79827C37.4104 8.02269 35.9391 9.8254 35.9656 12.0504C35.9708 12.4807 36.0433 12.9074 36.3067 13.2118C36.761 13.7362 38.0612 13.8619 38.7179 13.4208C38.8449 13.3355 38.9748 13.1802 39.0589 13.0725C39.1223 12.9914 39.2227 12.779 39.241 12.8401C39.2063 13.0758 39.1548 13.2943 39.1501 13.5602H40.0372C40.2082 11.0556 40.7367 8.91651 41.1289 6.63794H40.1507L40.1506 6.63803ZM37.9672 13.0259C37.3087 13.0404 36.9813 12.6242 36.9662 11.9342C36.94 10.7258 37.4591 9.38327 38.513 9.26286C39.0037 9.20685 39.359 9.32338 39.7186 9.44875C39.3885 10.8062 39.5076 12.9922 37.9672 13.0259ZM29.5285 8.72864C29.4803 9.00463 29.4064 9.25438 29.3465 9.51838C29.9237 9.37055 31.7209 8.91742 31.8941 9.70418C31.9515 9.96556 31.8524 10.2433 31.7803 10.4476C30.1552 10.2903 28.8307 10.5661 28.4821 11.7483C28.2488 12.5402 28.5083 13.3195 29.0053 13.5371C29.9626 13.9559 31.127 13.4761 31.5301 12.817C31.4882 13.0451 31.4486 13.2758 31.462 13.5602H32.3035C32.3125 12.7371 32.4298 12.0709 32.5537 11.3302C32.6593 10.6995 32.8581 10.0751 32.8267 9.51838C32.7543 8.24348 30.6861 8.69446 29.5285 8.72864ZM31.1206 12.6311C30.6166 13.135 29.2018 13.2781 29.3465 12.0736C29.4666 11.0731 30.5333 10.8606 31.6892 11.005C31.6033 11.5523 31.5047 12.2471 31.1206 12.6311Z" fill="white"/>
</g>
<defs>
<clipPath id="clip0_3406_234">
<rect width="45" height="20" fill="white" transform="translate(0 0.691406)"/>
</clipPath>
</defs>
</svg>
