<svg width="40" height="30" viewBox="0 0 40 30" fill="none" xmlns="http://www.w3.org/2000/svg">
<g clip-path="url(#clip0_3413_442)">
<path d="M39.6201 19.3188V18.8561H39.5001L39.3601 19.1646L39.2201 18.8561H39.1001V19.3188H39.1801V18.9718L39.3201 19.2802H39.4201L39.5601 18.9718V19.3188H39.6201ZM38.8201 19.3188V18.9332H38.9801V18.8561H38.5801V18.9332H38.7401V19.3188H38.8201Z" fill="#00A2E5"/>
<path d="M25.4001 21.3046H14.5801V2.56421H25.4001V21.3046Z" fill="#7375CF"/>
<path d="M15.28 11.9345C15.28 8.13625 17.12 4.74294 20 2.56427C17.9 0.964017 15.24 0.0192871 12.36 0.0192871C5.54 0.0192871 0 5.3599 0 11.9345C0 18.509 5.54 23.8496 12.36 23.8496C15.24 23.8496 17.9 22.9049 20 21.3046C17.12 19.126 15.28 15.7327 15.28 11.9345Z" fill="#EB001B"/>
<path d="M40 11.9345C40 18.509 34.46 23.8496 27.64 23.8496C24.76 23.8496 22.1 22.9049 20 21.3046C22.88 19.126 24.72 15.7327 24.72 11.9345C24.72 8.13625 22.88 4.74294 20 2.56427C22.1 0.964017 24.76 0.0192871 27.64 0.0192871C34.46 0.0192871 40 5.3599 40 11.9345Z" fill="#00A2E5"/>
<path d="M29.04 26.6067C29.18 26.6067 29.4 26.626 29.54 26.6839L29.32 27.3394C29.16 27.2815 29.02 27.2623 28.88 27.2623C28.42 27.2623 28.18 27.5515 28.18 28.072V29.8458H27.46V26.6839H28.16V27.0695C28.36 26.7803 28.64 26.6067 29.04 26.6067ZM26.4 27.3008H25.24V28.7276C25.24 29.036 25.36 29.2481 25.72 29.2481C25.9 29.2481 26.14 29.1903 26.36 29.0746L26.56 29.6723C26.34 29.8265 25.98 29.9229 25.66 29.9229C24.82 29.9229 24.52 29.4795 24.52 28.7468V27.3008H23.86V26.6646H24.52V25.7006H25.24V26.6646H26.4V27.3008ZM17.26 27.9756C17.34 27.5129 17.62 27.2044 18.14 27.2044C18.6 27.2044 18.9 27.4743 18.98 27.9756H17.26ZM19.72 28.2648C19.72 27.2815 19.08 26.6067 18.16 26.6067C17.2 26.6067 16.52 27.2815 16.52 28.2648C16.52 29.2674 17.22 29.9229 18.2 29.9229C18.7 29.9229 19.14 29.8072 19.54 29.4795L19.18 28.9782C18.9 29.1903 18.56 29.306 18.22 29.306C17.76 29.306 17.34 29.0939 17.24 28.5348H19.68C19.7 28.4384 19.72 28.3612 19.72 28.2648ZM22.86 27.4936C22.66 27.3779 22.26 27.2237 21.84 27.2237C21.44 27.2237 21.22 27.3587 21.22 27.59C21.22 27.8021 21.46 27.8599 21.78 27.8985L22.12 27.9371C22.84 28.0335 23.26 28.3227 23.26 28.8818C23.26 29.4795 22.72 29.9229 21.76 29.9229C21.22 29.9229 20.72 29.788 20.34 29.518L20.68 28.9782C20.92 29.1517 21.28 29.306 21.78 29.306C22.26 29.306 22.52 29.171 22.52 28.9204C22.52 28.7468 22.34 28.6504 21.94 28.5926L21.6 28.554C20.86 28.4576 20.46 28.1299 20.46 27.6286C20.46 26.9923 21 26.6067 21.82 26.6067C22.34 26.6067 22.82 26.7224 23.16 26.9345L22.86 27.4936ZM31.66 27.243C31.52 27.243 31.38 27.2623 31.26 27.3201C31.14 27.3779 31.02 27.4358 30.94 27.5322C30.86 27.6286 30.78 27.725 30.72 27.8599C30.66 27.9756 30.64 28.1299 30.64 28.2648C30.64 28.4191 30.66 28.554 30.72 28.6697C30.78 28.7854 30.84 28.9011 30.94 28.9975C31.04 29.0939 31.14 29.1517 31.26 29.2096C31.38 29.2674 31.52 29.2867 31.66 29.2867C31.8 29.2867 31.94 29.2674 32.06 29.2096C32.18 29.1517 32.3 29.0939 32.38 28.9975C32.48 28.9011 32.54 28.8047 32.6 28.6697C32.66 28.554 32.68 28.3998 32.68 28.2648C32.68 28.1106 32.66 27.9756 32.6 27.8599C32.54 27.7443 32.48 27.6286 32.38 27.5322C32.28 27.4358 32.18 27.3779 32.06 27.3201C31.94 27.2815 31.8 27.243 31.66 27.243ZM31.66 26.6067C31.92 26.6067 32.16 26.6453 32.36 26.7417C32.58 26.8188 32.76 26.9345 32.92 27.0887C33.08 27.243 33.2 27.4165 33.3 27.6093C33.38 27.8214 33.44 28.0335 33.44 28.2648C33.44 28.4962 33.4 28.7276 33.3 28.9204C33.22 29.1324 33.08 29.306 32.92 29.4409C32.76 29.5952 32.58 29.7108 32.36 29.788C32.14 29.8651 31.9 29.9229 31.66 29.9229C31.4 29.9229 31.16 29.8844 30.96 29.788C30.74 29.7108 30.56 29.5952 30.4 29.4409C30.24 29.2867 30.12 29.1132 30.02 28.9204C29.94 28.7083 29.88 28.4962 29.88 28.2648C29.88 28.0335 29.92 27.8021 30.02 27.6093C30.1 27.3972 30.24 27.2237 30.4 27.0887C30.56 26.9345 30.74 26.8188 30.96 26.7417C31.16 26.6453 31.4 26.6067 31.66 26.6067ZM13.1 28.2648C13.1 27.7057 13.48 27.243 14.1 27.243C14.7 27.243 15.08 27.6864 15.08 28.2648C15.08 28.8432 14.68 29.2674 14.1 29.2674C13.48 29.2674 13.1 28.824 13.1 28.2648ZM15.76 28.2648V26.6839H15.04V27.0695C14.82 26.7803 14.48 26.6067 14 26.6067C13.08 26.6067 12.36 27.3008 12.36 28.2648C12.36 29.2288 13.08 29.9229 14 29.9229C14.46 29.9229 14.8 29.7494 15.04 29.4602V29.8458H15.76V28.2648ZM11.74 29.8458V27.8599C11.74 27.108 11.24 26.6067 10.44 26.6067C10.02 26.6067 9.58002 26.7224 9.28002 27.1659C9.06002 26.8188 8.70002 26.6067 8.20002 26.6067C7.86002 26.6067 7.50002 26.7031 7.24002 27.0695V26.6839H6.52002V29.8458H7.24002V28.0913C7.24002 27.5515 7.56002 27.243 8.04002 27.243C8.52002 27.243 8.76002 27.5322 8.76002 28.072V29.8265H9.48002V28.072C9.48002 27.5322 9.82002 27.2237 10.28 27.2237C10.76 27.2237 11 27.5129 11 28.0527V29.8072H11.74V29.8458ZM34.2 29.5952V29.6723H34.28C34.3 29.6723 34.32 29.6723 34.32 29.653C34.34 29.653 34.34 29.6337 34.34 29.6144C34.34 29.5952 34.34 29.5952 34.32 29.5952C34.32 29.5952 34.3 29.5759 34.28 29.5759H34.2V29.5952ZM34.28 29.5566C34.32 29.5566 34.34 29.5566 34.36 29.5759C34.38 29.5952 34.4 29.6144 34.4 29.653C34.4 29.6723 34.4 29.6916 34.38 29.7108C34.36 29.7301 34.34 29.7301 34.3 29.7301L34.4 29.8458H34.32L34.22 29.7301H34.2V29.8458H34.14V29.5566H34.28ZM34.26 29.9422C34.3 29.9422 34.32 29.9422 34.36 29.9229C34.4 29.9036 34.42 29.8844 34.44 29.8651C34.46 29.8458 34.48 29.8265 34.5 29.788C34.52 29.7494 34.52 29.7301 34.52 29.6916C34.52 29.653 34.52 29.6337 34.5 29.5952C34.48 29.5566 34.46 29.5373 34.44 29.518C34.42 29.4988 34.4 29.4795 34.36 29.4602C34.34 29.4409 34.3 29.4409 34.26 29.4409C34.22 29.4409 34.2 29.4409 34.16 29.4602C34.12 29.4795 34.1 29.4988 34.08 29.518C34.06 29.5373 34.04 29.5759 34.02 29.5952C34 29.6337 34 29.653 34 29.6916C34 29.7301 34 29.7494 34.02 29.788C34.04 29.8265 34.06 29.8458 34.08 29.8651C34.1 29.8844 34.14 29.9036 34.16 29.9229C34.2 29.9422 34.22 29.9422 34.26 29.9422ZM34.26 29.3831C34.3 29.3831 34.34 29.3831 34.38 29.4024C34.42 29.4216 34.46 29.4409 34.48 29.4602C34.5 29.4795 34.54 29.518 34.56 29.5566C34.58 29.5952 34.58 29.6337 34.58 29.6723C34.58 29.7108 34.58 29.7494 34.56 29.788C34.54 29.8265 34.52 29.8651 34.48 29.8844C34.44 29.9036 34.42 29.9422 34.38 29.9615C34.34 29.9808 34.3 29.9808 34.26 29.9808C34.22 29.9808 34.16 29.9808 34.12 29.9615C34.08 29.9422 34.04 29.9229 34.02 29.8844C34 29.8651 33.96 29.8265 33.94 29.788C33.92 29.7494 33.92 29.7108 33.92 29.6723C33.92 29.6337 33.92 29.5952 33.94 29.5566C33.96 29.518 33.98 29.4795 34.02 29.4602C34.04 29.4409 34.08 29.4024 34.12 29.4024C34.16 29.3831 34.22 29.3831 34.26 29.3831Z" fill="black"/>
</g>
<defs>
<clipPath id="clip0_3413_442">
<rect width="40" height="30" fill="white"/>
</clipPath>
</defs>
</svg>
